# xmcd
#
# Track frame offsets:
# 150
# 13502
# 30310
# 45697
# 66822
# 83100
# 104912
# 123535
# 139650
# 159537
# 184992
# 208982
# 228807
# 247860
# 273597
#
# Disc length: 3837 seconds
#
#
# Revision: 0
# Processed by: cddbd v1.5.2PL0 Copyright (c) Steve Scherf et al.
# Submitted via: FreeRIP 2.53 
#
DISCID=d00efb0f
DTITLE=The Three Degrees - The Sound Of The Three Degrees
DYEAR=2002
DGENRE=Soul
TTITLE0=01-When Will I see You Again
TTITLE1=02-TSOP The Sound Of Philadelphia
TTITLE2=03-Do Right Woman Do Right Man
TTITLE3=04-Lets Get It On
TTITLE4=05-I'm Doing Fine Now
TTITLE5=06-Make It Easy On Yourself
TTITLE6=07-Midnight Train
TTITLE7=08-I'll Be Around
TTITLE8=09-Dirty Ol' Man
TTITLE9=10-Vital Signs
TTITLE10=11-After the Night Is Over
TTITLE11=12-A Tender Lie
TTITLE12=13-Lock It Up
TTITLE13=14-Are You That Kind Of Guy
TTITLE14=15-I'm Gonna Miss You
EXTD=
EXTT0=
EXTT1=
EXTT2=
EXTT3=
EXTT4=
EXTT5=
EXTT6=
EXTT7=
EXTT8=
EXTT9=
EXTT10=
EXTT11=
EXTT12=
EXTT13=
EXTT14=
PLAYORDER=
